<svg version="1.1" id="Layer_1" xmlns="http://www.w3.org/2000/svg" xmlns:xlink="http://www.w3.org/1999/xlink" x="0px" y="0px"
	 width="100%" viewBox="0 0 600 600" enable-background="new 0 0 600 600" xml:space="preserve">
<path fill="#FFFFFF" opacity="1.000000" stroke="none" 
	d="
M393.000000,601.000000 
	C262.000000,601.000000 131.500000,601.000000 1.000000,601.000000 
	C1.000000,401.000000 1.000000,201.000000 1.000000,1.000000 
	C201.000000,1.000000 401.000000,1.000000 601.000000,1.000000 
	C601.000000,201.000000 601.000000,401.000000 601.000000,601.000000 
	C531.833313,601.000000 462.666656,601.000000 393.000000,601.000000 
M71.043480,367.543854 
	C71.043480,367.543854 71.150436,367.341827 71.150436,367.341827 
	C71.150436,367.341827 70.907158,367.233704 71.183907,366.453857 
	C71.305527,365.638245 71.427147,364.822662 72.200249,363.584747 
	C74.154373,363.375061 76.108467,362.982086 78.062607,362.981903 
	C191.885818,362.969482 305.709076,362.922333 419.532166,363.049774 
	C451.493469,363.085541 483.454132,363.644257 515.415100,363.961945 
	C518.656372,363.994171 521.897705,364.018555 525.104248,364.879913 
	C527.057129,373.241913 529.047668,381.595306 530.952087,389.968323 
	C532.814148,398.155548 533.402161,398.510529 541.875671,395.738678 
	C541.625977,393.858978 541.242004,391.928070 541.142029,389.982574 
	C541.005554,387.329315 541.085510,384.664948 541.697388,382.381317 
	C545.682495,393.959412 549.667603,405.537537 553.720337,417.850098 
	C556.778137,430.470215 557.467407,431.090393 567.926086,429.351746 
	C562.775818,404.087921 557.631775,378.854645 552.838379,352.776489 
	C556.399292,352.175812 559.943726,351.241150 563.525574,351.064514 
	C567.427490,350.872070 569.101257,349.631439 569.078064,345.403870 
	C568.916138,315.937744 568.968933,286.470490 568.986938,256.114990 
	C568.976074,253.742249 568.965210,251.369507 568.972351,248.109451 
	C568.963806,245.742462 568.955261,243.375488 568.976929,240.070587 
	C568.982178,229.693909 569.143799,219.312912 568.856750,208.944336 
	C568.801270,206.941437 566.990234,204.987152 565.677002,202.401123 
	C557.900146,197.658539 550.236267,192.712860 542.282104,188.289078 
	C539.676819,186.840134 536.315674,186.116928 533.303589,186.126450 
	C470.872131,186.323532 408.441162,186.673996 346.010132,186.997681 
	C345.344391,187.001129 344.678925,187.051758 343.075409,187.035446 
	C298.474701,187.026855 253.873672,187.123047 209.273468,186.970963 
	C181.852905,186.877441 154.433640,186.404388 126.076157,186.050858 
	C103.762451,186.039764 81.447815,186.135452 59.135735,185.939850 
	C53.791653,185.892990 50.907650,188.484177 48.302441,193.032272 
	C46.529739,194.677185 44.757038,196.322083 42.348061,198.071136 
	C41.892029,198.712936 41.435993,199.354736 40.603321,200.492050 
	C39.739872,201.005966 38.876419,201.519882 37.419205,202.310638 
	C37.292164,203.535233 37.165119,204.759811 37.014393,206.923431 
	C37.012531,252.505936 37.036331,298.088470 36.966805,343.670868 
	C36.960270,347.953217 37.059978,350.851593 42.940186,349.263611 
	C45.614891,348.541260 48.920769,350.156158 51.376572,351.319427 
	C51.202587,353.616547 51.256443,355.957977 50.819427,358.203918 
	C46.375042,381.044312 41.952545,403.890167 37.251572,426.678284 
	C36.438374,430.620300 38.240063,431.644073 41.181751,431.557251 
	C43.152538,431.499054 45.090263,430.320801 47.792339,429.546783 
	C48.461174,428.095306 49.295444,426.695953 49.771637,425.183807 
	C52.580593,416.264160 55.306248,407.318268 58.864826,398.385803 
	C62.025383,398.410034 63.406822,396.766296 64.127022,393.718750 
	C66.202812,384.935150 68.588211,376.224762 71.043480,367.543854 
z"/>
<path fill="#E6EAED" opacity="1.000000" stroke="none" 
	d="
M565.989014,203.010437 
	C566.990234,204.987152 568.801270,206.941437 568.856750,208.944336 
	C569.143799,219.312912 568.982178,229.693909 568.528687,240.536926 
	C566.001343,241.317230 563.511047,241.022812 561.938110,242.085831 
	C559.498230,243.734772 561.576111,254.856186 563.424561,257.320892 
	C564.485046,258.734985 564.000183,261.769836 563.398987,263.839142 
	C562.791809,265.928772 560.366577,267.639191 560.148132,269.667572 
	C559.063416,279.743134 559.227356,279.761078 549.032898,279.999451 
	C548.533386,280.011139 547.868713,279.804565 547.562866,280.050354 
	C546.320923,281.048370 544.342041,282.065979 544.172424,283.289490 
	C543.620422,287.272003 541.314697,288.069305 537.895935,288.027374 
	C530.568054,287.937469 523.238220,287.999969 515.909180,288.000000 
	C504.450989,288.000061 504.546631,288.005554 503.886261,299.398560 
	C503.796356,300.949585 502.188965,302.412659 501.284180,303.916473 
	C500.189026,302.604492 498.229095,301.337708 498.157715,299.972229 
	C497.925995,295.539948 495.025116,296.095245 492.174255,295.977570 
	C488.773987,295.837158 487.899231,297.630707 487.970428,300.645630 
	C488.084473,305.473389 488.241486,310.325378 487.857208,315.125275 
	C487.731049,316.700928 485.981323,318.146576 484.974030,319.651672 
	C483.982910,318.299561 482.275269,317.016785 482.136383,315.582184 
	C481.735016,311.436707 478.916870,312.115814 476.302948,311.988800 
	C473.435547,311.849426 471.830078,312.935883 471.996918,316.006348 
	C472.141754,318.672546 470.972992,320.155182 468.189514,319.986084 
	C464.811920,319.780884 463.812378,321.589386 463.980316,324.624115 
	C464.090607,326.616791 463.957581,328.621643 464.007874,330.619202 
	C464.086365,333.737396 462.834839,335.387146 459.588257,336.178131 
	C458.146667,336.529358 456.531342,338.668671 456.133728,340.277740 
	C455.330170,343.529480 454.442596,345.305695 450.472778,344.434631 
	C446.687622,343.604065 443.385773,344.179657 439.476135,346.655762 
	C436.048889,348.826385 429.750275,348.187286 425.524200,346.620300 
	C423.515045,345.875336 421.239166,343.044342 419.086609,344.418152 
	C417.373260,345.511688 416.974335,348.664673 415.530457,350.936523 
	C411.048676,350.948395 407.028351,350.927155 402.998718,350.527252 
	C401.746643,343.885803 396.706360,346.651672 393.083130,345.524475 
	C393.021759,326.374817 392.984192,307.692657 392.973816,288.552979 
	C392.974457,284.725586 392.947876,281.355682 392.942322,277.663452 
	C392.949188,275.898987 392.935059,274.456787 392.955688,272.545593 
	C392.980774,258.071716 392.971100,244.066818 392.979919,229.587402 
	C392.999329,220.741714 393.000275,212.370560 393.281494,203.708496 
	C397.991577,203.611557 402.421082,203.966293 406.851166,203.973480 
	C437.244324,204.022812 467.637604,204.001007 498.030823,203.998550 
	C509.023376,203.997665 520.015930,203.987045 531.472290,203.984955 
	C542.568970,203.985214 553.202087,204.000092 563.834656,203.936035 
	C564.554565,203.931717 565.270996,203.332809 565.989014,203.010437 
M401.004547,298.143829 
	C402.592316,297.456573 404.180084,296.769318 406.030060,295.968536 
	C406.348663,291.413086 406.720276,286.811829 406.980469,282.204254 
	C407.329163,276.028656 408.144867,269.799622 407.608246,263.694733 
	C407.404816,261.380432 404.210297,259.061066 401.914948,257.376495 
	C401.297607,256.923401 398.042511,258.456512 397.613464,259.655731 
	C396.315613,263.283386 395.264008,267.172333 395.107574,271.000000 
	C394.755127,279.622009 394.948364,288.269012 395.045013,296.904419 
	C395.063202,298.530487 395.663208,300.150085 396.219482,302.872864 
	C398.260590,300.950134 399.415985,299.861755 401.004547,298.143829 
z"/>
<path fill="#E3E7EA" opacity="1.000000" stroke="none" 
	d="
M48.972771,192.923630 
	C50.907650,188.484177 53.791653,185.892990 59.135735,185.939850 
	C81.447815,186.135452 103.762451,186.039764 126.522614,186.479797 
	C125.550682,187.605713 123.937103,189.138321 122.746460,188.860214 
	C116.374710,187.371948 111.692474,191.263016 106.495880,193.482010 
	C105.874771,193.747238 105.372223,194.681396 105.143097,195.408905 
	C103.793732,199.693314 105.520981,201.979019 110.189804,201.986847 
	C128.735321,202.017914 147.281036,201.973053 165.826340,202.043106 
	C167.551926,202.049622 169.275192,202.668396 170.773392,203.270294 
	C169.148026,204.779449 167.748795,206.021194 165.566681,207.957703 
	C166.091888,207.931076 165.432922,207.982849 164.773193,207.995224 
	C151.353241,208.247116 153.196182,205.560272 152.959625,220.503754 
	C152.902817,224.092041 154.523499,225.184387 157.814545,225.019501 
	C171.145981,224.351608 168.857544,226.594406 168.999100,236.622070 
	C169.006134,237.120895 169.000000,237.619934 169.000000,238.118866 
	C169.000000,248.620422 169.012192,248.443741 179.391739,249.159668 
	C181.320206,249.292679 183.279846,251.298431 184.899933,252.792450 
	C186.055664,253.858261 186.891113,256.800903 187.484634,256.697479 
	C191.214157,256.047577 195.791428,259.848022 198.569489,255.689178 
	C201.418503,251.424103 204.642731,249.940033 209.570374,251.768234 
	C209.924759,248.317352 210.241730,245.230789 210.558716,242.144226 
	C211.126816,242.119019 211.694931,242.093826 212.263031,242.068619 
	C212.507065,243.344864 213.080109,244.659729 212.935654,245.890381 
	C212.427597,250.219009 211.183563,254.511688 211.121658,258.830963 
	C211.017334,266.110138 211.593933,273.399658 211.957153,280.681183 
	C211.965866,280.855804 212.835281,280.987488 213.252655,281.588318 
	C213.220917,292.646484 213.239761,303.255524 212.865265,313.961853 
	C210.436722,316.380585 209.694962,318.534821 213.297119,320.519440 
	C213.558197,323.604095 213.779480,326.301727 213.703430,329.291534 
	C213.606537,334.724213 213.806992,339.864746 214.032135,345.429993 
	C213.997482,347.547974 213.938126,349.241211 213.417755,350.929321 
	C181.637680,350.620697 150.318588,350.317200 118.933769,349.651489 
	C116.950058,347.535126 115.197769,346.899506 113.533730,350.027039 
	C108.044609,350.029968 103.022156,350.016205 97.993515,349.614929 
	C95.305008,347.293915 92.622665,345.360443 88.999481,342.748749 
	C88.999481,335.669647 88.959381,327.200470 89.021027,318.732056 
	C89.042877,315.731232 88.329468,313.212952 84.892189,313.083832 
	C81.332985,312.950073 80.926071,310.905182 80.977295,308.093872 
	C81.062256,303.431366 81.393333,298.715515 80.804253,294.126953 
	C80.567108,292.279724 78.428299,289.657990 76.708916,289.244751 
	C73.693253,288.520020 72.881149,287.165070 72.984795,284.464050 
	C73.067764,282.301819 73.500626,279.967102 72.852776,278.016235 
	C72.232628,276.148895 70.576622,273.461639 69.099770,273.270721 
	C65.341850,272.784912 64.957047,270.829681 64.971207,267.830750 
	C65.037285,253.838882 65.000740,239.846512 65.000069,225.854324 
	C64.999695,217.913406 64.998985,217.913406 56.998920,216.270767 
	C56.998920,213.140137 56.930569,209.856003 57.017097,206.575928 
	C57.114288,202.891647 55.586723,200.894226 51.733742,200.997452 
	C47.049114,201.123001 45.860428,199.386383 48.664871,195.354843 
	C49.078243,194.760590 48.885227,193.744537 48.972771,192.923630 
M207.753830,291.830017 
	C208.169754,290.355957 208.908340,288.889801 208.944534,287.406464 
	C209.085266,281.637665 209.106293,275.860809 208.958313,270.092407 
	C208.888931,267.387695 208.333710,264.695465 208.081970,261.235413 
	C208.332748,260.027008 208.583527,258.818634 208.896805,257.309082 
	C206.091400,257.309082 203.852203,257.309082 202.709488,257.309082 
	C201.434921,259.470215 200.535538,260.876007 199.754333,262.344666 
	C198.140991,265.377686 195.475723,268.357758 195.230927,271.513794 
	C194.589005,279.790253 195.006927,288.149506 195.017349,296.475739 
	C195.021240,299.584259 196.566437,300.018433 199.261246,299.144440 
	C202.240280,298.178284 205.331772,297.558807 208.726028,296.699249 
	C208.719818,296.641632 208.852203,295.890198 208.541321,295.456390 
	C208.087677,294.823395 207.315460,294.418701 206.698807,293.270355 
	C206.782501,292.848633 206.866211,292.426880 207.753830,291.830017 
z"/>
<path fill="#E3E7EA" opacity="1.000000" stroke="none" 
	d="
M415.991913,350.903412 
	C416.974335,348.664673 417.373260,345.511688 419.086609,344.418152 
	C421.239166,343.044342 423.515045,345.875336 425.524200,346.620300 
	C429.750275,348.187286 436.048889,348.826385 439.476135,346.655762 
	C443.385773,344.179657 446.687622,343.604065 450.472778,344.434631 
	C454.442596,345.305695 455.330170,343.529480 456.133728,340.277740 
	C456.531342,338.668671 458.146667,336.529358 459.588257,336.178131 
	C462.834839,335.387146 464.086365,333.737396 464.007874,330.619202 
	C463.957581,328.621643 464.090607,326.616791 463.980316,324.624115 
	C463.812378,321.589386 464.811920,319.780884 468.189514,319.986084 
	C470.972992,320.155182 472.141754,318.672546 471.996918,316.006348 
	C471.830078,312.935883 473.435547,311.849426 476.302948,311.988800 
	C478.916870,312.115814 481.735016,311.436707 482.136383,315.582184 
	C482.275269,317.016785 483.982910,318.299561 484.974030,319.651672 
	C485.981323,318.146576 487.731049,316.700928 487.857208,315.125275 
	C488.241486,310.325378 488.084473,305.473389 487.970428,300.645630 
	C487.899231,297.630707 488.773987,295.837158 492.174255,295.977570 
	C495.025116,296.095245 497.925995,295.539948 498.157715,299.972229 
	C498.229095,301.337708 500.189026,302.604492 501.284180,303.916473 
	C502.188965,302.412659 503.796356,300.949585 503.886261,299.398560 
	C504.546631,288.005554 504.450989,288.000061 515.909180,288.000000 
	C523.238220,287.999969 530.568054,287.937469 537.895935,288.027374 
	C541.314697,288.069305 543.620422,287.272003 544.172424,283.289490 
	C544.342041,282.065979 546.320923,281.048370 547.562866,280.050354 
	C547.868713,279.804565 548.533386,280.011139 549.032898,279.999451 
	C559.227356,279.761078 559.063416,279.743134 560.148132,269.667572 
	C560.366577,267.639191 562.791809,265.928772 563.398987,263.839142 
	C564.000183,261.769836 564.485046,258.734985 563.424561,257.320892 
	C561.576111,254.856186 559.498230,243.734772 561.938110,242.085831 
	C563.511047,241.022812 566.001343,241.317230 568.513611,241.005890 
	C568.955261,243.375488 568.963806,245.742462 568.588867,248.639160 
	C566.605164,251.956924 565.478699,254.699738 568.953003,257.003571 
	C568.968933,286.470490 568.916138,315.937744 569.078064,345.403870 
	C569.101257,349.631439 567.427490,350.872070 563.525574,351.064514 
	C559.943726,351.241150 556.399292,352.175812 552.483948,352.861267 
	C551.137756,352.119965 550.195557,350.673004 549.144531,350.589050 
	C546.449280,350.373810 543.705688,350.764130 540.689026,350.657410 
	C528.944885,350.577240 517.493103,350.751953 505.720245,350.661255 
	C489.032166,350.433929 472.695740,349.528564 456.287964,350.748566 
	C442.925964,351.742065 429.429016,350.920227 415.991913,350.903412 
z"/>
<path fill="#E0E4E6" opacity="1.000000" stroke="none" 
	d="
M48.637604,192.977951 
	C48.885227,193.744537 49.078243,194.760590 48.664871,195.354843 
	C45.860428,199.386383 47.049114,201.123001 51.733742,200.997452 
	C55.586723,200.894226 57.114288,202.891647 57.017097,206.575928 
	C56.930569,209.856003 56.998920,213.140137 56.998920,216.270767 
	C64.998985,217.913406 64.999695,217.913406 65.000069,225.854324 
	C65.000740,239.846512 65.037285,253.838882 64.971207,267.830750 
	C64.957047,270.829681 65.341850,272.784912 69.099770,273.270721 
	C70.576622,273.461639 72.232628,276.148895 72.852776,278.016235 
	C73.500626,279.967102 73.067764,282.301819 72.984795,284.464050 
	C72.881149,287.165070 73.693253,288.520020 76.708916,289.244751 
	C78.428299,289.657990 80.567108,292.279724 80.804253,294.126953 
	C81.393333,298.715515 81.062256,303.431366 80.977295,308.093872 
	C80.926071,310.905182 81.332985,312.950073 84.892189,313.083832 
	C88.329468,313.212952 89.042877,315.731232 89.021027,318.732056 
	C88.959381,327.200470 88.999481,335.669647 88.999481,342.748749 
	C92.622665,345.360443 95.305008,347.293915 97.525223,349.634827 
	C88.240654,350.042938 79.417198,349.971741 70.596436,350.093994 
	C68.336044,350.125366 66.084122,350.767609 63.474014,351.196014 
	C59.393265,351.078888 55.666805,350.894897 51.940346,350.710876 
	C48.920769,350.156158 45.614891,348.541260 42.940186,349.263611 
	C37.059978,350.851593 36.960270,347.953217 36.966805,343.670868 
	C37.036331,298.088470 37.012531,252.505936 37.290409,206.222473 
	C37.715271,204.358932 37.864117,203.196365 38.012962,202.033813 
	C38.876419,201.519882 39.739872,201.005966 41.117191,200.204163 
	C42.082161,199.266525 42.533257,198.616760 42.984344,197.966980 
	C44.757038,196.322083 46.529739,194.677185 48.637604,192.977951 
M75.522957,346.304779 
	C76.488136,346.407593 77.453323,346.510376 78.418503,346.613159 
	C78.396889,346.150024 78.375275,345.686890 78.353653,345.223724 
	C77.412575,345.364349 76.471497,345.504974 75.522957,346.304779 
z"/>
<path fill="#E0E4E6" opacity="1.000000" stroke="none" 
	d="
M170.999542,203.002884 
	C169.275192,202.668396 167.551926,202.049622 165.826340,202.043106 
	C147.281036,201.973053 128.735321,202.017914 110.189804,201.986847 
	C105.520981,201.979019 103.793732,199.693314 105.143097,195.408905 
	C105.372223,194.681396 105.874771,193.747238 106.495880,193.482010 
	C111.692474,191.263016 116.374710,187.371948 122.746460,188.860214 
	C123.937103,189.138321 125.550682,187.605713 126.991440,186.505249 
	C154.433640,186.404388 181.852905,186.877441 209.273468,186.970963 
	C253.873672,187.123047 298.474701,187.026855 343.547180,187.440369 
	C344.427582,191.655136 347.079102,192.031281 350.163727,192.019974 
	C363.152344,191.972366 376.145996,191.797150 389.127472,192.104828 
	C393.977722,192.219788 398.796417,193.547256 403.637482,194.268341 
	C404.567230,194.406830 405.536652,194.341629 406.483612,194.291885 
	C414.411560,193.875504 422.337891,193.429230 430.266815,193.033539 
	C430.897247,193.002075 431.633606,193.128586 432.167450,193.442429 
	C435.849670,195.607178 439.454468,197.906174 443.171509,200.007492 
	C444.103760,200.534546 445.632507,201.035690 446.412903,200.632019 
	C450.844299,198.339874 455.014709,199.353546 459.402100,200.780624 
	C460.951111,201.284454 462.933868,200.317978 464.728973,200.226105 
	C471.929993,199.857513 479.134979,199.567398 486.338989,199.259171 
	C486.489777,199.252731 486.640839,199.410980 486.800781,199.437012 
	C490.028198,199.962891 493.248901,200.859879 496.486938,200.928482 
	C505.974457,201.129471 515.474487,200.829132 524.956360,201.135483 
	C527.002258,201.201599 528.992554,202.987289 531.008484,203.980881 
	C520.015930,203.987045 509.023376,203.997665 498.030823,203.998550 
	C467.637604,204.001007 437.244324,204.022812 406.851166,203.973480 
	C402.421082,203.966293 397.991577,203.611557 392.946594,203.708313 
	C391.884796,203.999725 391.438263,204.000473 390.526794,204.000641 
	C379.792480,203.666916 369.524475,203.111023 359.253387,203.045959 
	C336.315125,202.900650 313.375305,203.000259 290.436127,202.999969 
	C267.483368,202.999664 244.530533,202.973724 221.578003,203.046112 
	C219.699783,203.052032 217.823654,203.727661 215.647278,204.076080 
	C214.949753,204.056503 214.551514,204.052933 213.790283,204.033966 
	C212.285294,203.678436 211.143326,203.338303 209.916382,202.611954 
	C205.042908,199.315903 200.572784,202.073090 195.531357,203.002365 
	C187.041656,203.002243 179.020599,203.002563 170.999542,203.002884 
z"/>
<path fill="#DBE1E1" opacity="1.000000" stroke="none" 
	d="
M525.139038,364.046570 
	C521.897705,364.018555 518.656372,363.994171 515.415100,363.961945 
	C483.454132,363.644257 451.493469,363.085541 419.532166,363.049774 
	C305.709076,362.922333 191.885818,362.969482 78.062607,362.981903 
	C76.108467,362.982086 74.154373,363.375061 71.465034,363.572327 
	C69.495415,363.531433 68.261009,363.502991 66.740341,363.330048 
	C62.502407,363.365204 63.350651,360.247223 62.957890,357.767090 
	C62.985676,357.346039 62.959858,357.176544 63.324333,356.844818 
	C65.009171,356.470917 66.305229,356.065643 67.598038,356.075806 
	C100.537933,356.333862 133.477203,356.675140 166.417221,356.911469 
	C181.404297,357.018982 196.393555,357.006958 211.379547,356.843170 
	C213.244888,356.822754 215.096359,355.534790 215.996277,355.195404 
	C217.995880,355.897125 219.515747,356.892029 221.038193,356.896027 
	C246.682846,356.963226 272.327850,356.906982 298.441833,356.913574 
	C352.151611,356.969696 405.392273,356.999207 458.632935,356.972015 
	C460.407593,356.971100 462.181946,356.395996 464.428467,356.091187 
	C490.223663,356.420074 515.546814,356.746368 540.926086,357.503418 
	C541.840698,362.663239 540.052917,364.618988 535.125305,364.077515 
	C531.835144,363.715973 528.470398,364.033173 525.139038,364.046570 
z"/>
<path fill="#DBE1E1" opacity="1.000000" stroke="none" 
	d="
M531.472290,203.984955 
	C528.992554,202.987289 527.002258,201.201599 524.956360,201.135483 
	C515.474487,200.829132 505.974457,201.129471 496.486938,200.928482 
	C493.248901,200.859879 490.028198,199.962891 486.800781,199.437012 
	C486.640839,199.410980 486.489777,199.252731 486.338989,199.259171 
	C479.134979,199.567398 471.929993,199.857513 464.728973,200.226105 
	C462.933868,200.317978 460.951111,201.284454 459.402100,200.780624 
	C455.014709,199.353546 450.844299,198.339874 446.412903,200.632019 
	C445.632507,201.035690 444.103760,200.534546 443.171509,200.007492 
	C439.454468,197.906174 435.849670,195.607178 432.167450,193.442429 
	C431.633606,193.128586 430.897247,193.002075 430.266815,193.033539 
	C422.337891,193.429230 414.411560,193.875504 406.483612,194.291885 
	C405.536652,194.341629 404.567230,194.406830 403.637482,194.268341 
	C398.796417,193.547256 393.977722,192.219788 389.127472,192.104828 
	C376.145996,191.797150 363.152344,191.972366 350.163727,192.019974 
	C347.079102,192.031281 344.427582,191.655136 344.016113,187.462814 
	C344.678925,187.051758 345.344391,187.001129 346.010132,186.997681 
	C408.441162,186.673996 470.872131,186.323532 533.303589,186.126450 
	C536.315674,186.116928 539.676819,186.840134 542.282104,188.289078 
	C550.236267,192.712860 557.900146,197.658539 565.833008,202.705780 
	C565.270996,203.332809 564.554565,203.931717 563.834656,203.936035 
	C553.202087,204.000092 542.568970,203.985214 531.472290,203.984955 
z"/>
<path fill="#A68053" opacity="1.000000" stroke="none" 
	d="
M553.652710,417.115662 
	C549.667603,405.537537 545.682495,393.959412 540.985962,382.118835 
	C539.072327,376.963196 537.870117,372.070038 537.062805,368.784058 
	C539.657837,365.299072 541.627319,362.657654 543.592285,360.012878 
	C544.087280,359.346619 544.441223,358.480011 545.088562,358.047760 
	C545.823853,357.556793 546.964539,357.044342 547.651794,357.296570 
	C548.270203,357.523529 548.824463,358.764008 548.846252,359.572601 
	C548.875793,360.666962 548.369751,361.775757 548.126770,362.745514 
	C549.491272,363.947968 551.323486,364.778351 551.747375,366.070679 
	C553.691772,371.997986 555.523987,377.992340 556.866028,384.079559 
	C558.744019,392.597778 560.172607,401.215912 561.750854,409.799103 
	C562.520935,413.986847 563.355225,418.173676 563.844910,422.397522 
	C564.092041,424.529419 563.636230,426.742859 563.498230,428.919434 
	C561.342346,427.430969 558.921997,426.198792 557.134033,424.353790 
	C556.130554,423.318298 556.323730,421.205872 555.690002,419.699677 
	C555.279968,418.725128 554.349792,417.969421 553.652710,417.115662 
z"/>
<path fill="#A68053" opacity="1.000000" stroke="none" 
	d="
M62.904285,358.018646 
	C63.350651,360.247223 62.502407,363.365204 66.833191,363.672913 
	C67.215439,365.874512 67.626770,367.711334 67.154999,369.283051 
	C64.233696,379.015564 61.113861,388.688507 58.059952,398.381226 
	C55.306248,407.318268 52.580593,416.264160 49.771637,425.183807 
	C49.295444,426.695953 48.461174,428.095306 47.134251,429.458740 
	C45.075047,429.084564 43.673935,428.798401 42.085030,428.473907 
	C42.196625,427.208954 42.233006,426.242523 42.373474,425.291504 
	C43.568314,417.201691 44.684761,409.098633 46.013039,401.030548 
	C47.995354,388.989716 49.632595,376.858856 52.377338,364.988434 
	C54.193729,357.132965 54.946800,357.307098 62.904285,358.018646 
M61.457077,362.247467 
	C61.590481,361.843811 61.745167,361.445007 61.838814,361.032349 
	C61.856907,360.952637 61.636200,360.818787 61.525654,360.709900 
	C61.394402,361.111603 61.263153,361.513306 61.457077,362.247467 
z"/>
<path fill="#7F5E48" opacity="1.000000" stroke="none" 
	d="
M553.686523,417.482880 
	C554.349792,417.969421 555.279968,418.725128 555.690002,419.699677 
	C556.323730,421.205872 556.130554,423.318298 557.134033,424.353790 
	C558.921997,426.198792 561.342346,427.430969 563.498230,428.919434 
	C563.636230,426.742859 564.092041,424.529419 563.844910,422.397522 
	C563.355225,418.173676 562.520935,413.986847 561.750854,409.799103 
	C560.172607,401.215912 558.744019,392.597778 556.866028,384.079559 
	C555.523987,377.992340 553.691772,371.997986 551.747375,366.070679 
	C551.323486,364.778351 549.491272,363.947968 548.126770,362.745514 
	C548.369751,361.775757 548.875793,360.666962 548.846252,359.572601 
	C548.824463,358.764008 548.270203,357.523529 547.651794,357.296570 
	C546.964539,357.044342 545.823853,357.556793 545.088562,358.047760 
	C544.441223,358.480011 544.087280,359.346619 543.592285,360.012878 
	C541.627319,362.657654 539.657837,365.299072 537.062805,368.784058 
	C537.870117,372.070038 539.072327,376.963196 540.673584,381.930847 
	C541.085510,384.664948 541.005554,387.329315 541.142029,389.982574 
	C541.242004,391.928070 541.625977,393.858978 541.875671,395.738678 
	C533.402161,398.510529 532.814148,398.155548 530.952087,389.968323 
	C529.047668,381.595306 527.057129,373.241913 525.121643,364.463257 
	C528.470398,364.033173 531.835144,363.715973 535.125305,364.077515 
	C540.052917,364.618988 541.840698,362.663239 540.952393,357.089050 
	C540.867554,355.140930 540.812500,354.037903 540.796265,352.717712 
	C540.835205,352.500519 540.768188,352.064331 540.836182,351.779053 
	C540.929932,351.299957 540.955688,351.106110 540.981384,350.912292 
	C543.705688,350.764130 546.449280,350.373810 549.144531,350.589050 
	C550.195557,350.673004 551.137756,352.119965 552.308655,353.283722 
	C557.631775,378.854645 562.775818,404.087921 567.926086,429.351746 
	C557.467407,431.090393 556.778137,430.470215 553.686523,417.482880 
z"/>
<path fill="#7F5E48" opacity="1.000000" stroke="none" 
	d="
M62.957890,357.767090 
	C54.946800,357.307098 54.193729,357.132965 52.377338,364.988434 
	C49.632595,376.858856 47.995354,388.989716 46.013039,401.030548 
	C44.684761,409.098633 43.568314,417.201691 42.373474,425.291504 
	C42.233006,426.242523 42.196625,427.208954 42.085030,428.473907 
	C43.673935,428.798401 45.075047,429.084564 46.759476,429.507202 
	C45.090263,430.320801 43.152538,431.499054 41.181751,431.557251 
	C38.240063,431.644073 36.438374,430.620300 37.251572,426.678284 
	C41.952545,403.890167 46.375042,381.044312 50.819427,358.203918 
	C51.256443,355.957977 51.202587,353.616547 51.658459,351.015167 
	C55.666805,350.894897 59.393265,351.078888 63.351982,351.493164 
	C63.367512,353.484650 63.150776,355.245819 62.934040,357.007019 
	C62.959858,357.176544 62.985676,357.346039 62.957890,357.767090 
z"/>
<path fill="#7F5E48" opacity="1.000000" stroke="none" 
	d="
M58.462387,398.383514 
	C61.113861,388.688507 64.233696,379.015564 67.154999,369.283051 
	C67.626770,367.711334 67.215439,365.874512 67.119461,363.817383 
	C68.261009,363.502991 69.495415,363.531433 71.139297,363.783478 
	C71.427147,364.822662 71.305527,365.638245 71.009148,366.901062 
	C70.834389,367.348236 70.851997,367.485596 70.851990,367.485596 
	C68.588211,376.224762 66.202812,384.935150 64.127022,393.718750 
	C63.406822,396.766296 62.025383,398.410034 58.462387,398.383514 
z"/>
<path fill="#E6EAED" opacity="1.000000" stroke="none" 
	d="
M568.969971,256.559265 
	C565.478699,254.699738 566.605164,251.956924 568.579895,249.082825 
	C568.965210,251.369507 568.976074,253.742249 568.969971,256.559265 
z"/>
<path fill="#E3E7EA" opacity="1.000000" stroke="none" 
	d="
M37.716084,202.172211 
	C37.864117,203.196365 37.715271,204.358932 37.302250,205.752960 
	C37.165119,204.759811 37.292164,203.535233 37.716084,202.172211 
z"/>
<path fill="#E3E7EA" opacity="1.000000" stroke="none" 
	d="
M42.666206,198.019073 
	C42.533257,198.616760 42.082161,199.266525 41.305511,199.956406 
	C41.435993,199.354736 41.892029,198.712936 42.666206,198.019073 
z"/>
<path fill="#A68053" opacity="1.000000" stroke="none" 
	d="
M70.947739,367.514709 
	C70.851997,367.485596 70.834389,367.348236 70.870773,367.290955 
	C70.907158,367.233704 71.150436,367.341827 71.150436,367.341827 
	C71.150436,367.341827 71.043480,367.543854 70.947739,367.514709 
z"/>
<path fill="#B7BDC2" opacity="1.000000" stroke="none" 
	d="
M463.956451,356.088562 
	C462.181946,356.395996 460.407593,356.971100 458.632935,356.972015 
	C405.392273,356.999207 352.151611,356.969696 298.445129,356.567230 
	C297.312805,354.496338 296.646240,352.807343 296.448669,351.070404 
	C326.696777,351.013153 356.475891,351.018951 386.254883,350.964844 
	C388.559998,350.960663 391.589294,351.922241 392.199524,348.000793 
	C392.431763,347.993805 392.896240,347.980835 392.935547,348.397705 
	C394.009735,349.545807 394.980164,350.758209 396.092987,350.907318 
	C398.357330,351.210602 400.698517,350.940002 403.008057,350.905884 
	C407.028351,350.927155 411.048676,350.948395 415.530457,350.936523 
	C429.429016,350.920227 442.925964,351.742065 456.287964,350.748566 
	C472.695740,349.528564 489.032166,350.433929 505.429443,350.971924 
	C493.767944,352.031189 482.066864,352.370911 470.392548,353.124664 
	C468.192566,353.266724 466.099060,355.058197 463.956451,356.088562 
z"/>
<path fill="#DBE1E1" opacity="1.000000" stroke="none" 
	d="
M400.787964,298.458588 
	C399.415985,299.861755 398.260590,300.950134 396.219482,302.872864 
	C395.663208,300.150085 395.063202,298.530487 395.045013,296.904419 
	C394.948364,288.269012 394.755127,279.622009 395.107574,271.000000 
	C395.264008,267.172333 396.315613,263.283386 397.613464,259.655731 
	C398.042511,258.456512 401.297607,256.923401 401.914948,257.376495 
	C404.210297,259.061066 407.404816,261.380432 407.608246,263.694733 
	C408.144867,269.799622 407.329163,276.028656 406.980469,282.204254 
	C406.720276,286.811829 406.348663,291.413086 406.030060,295.968536 
	C404.180084,296.769318 402.592316,297.456573 400.787964,298.458588 
M400.082764,283.438599 
	C400.119293,285.922394 399.918457,288.442963 400.295319,290.873993 
	C400.476105,292.040344 401.749420,293.037354 402.527954,294.111053 
	C403.113708,293.080688 404.189575,292.058807 404.207611,291.018585 
	C404.351135,282.740173 404.373901,274.456635 404.203125,266.179413 
	C404.180206,265.069946 402.868896,263.987061 402.154205,262.891846 
	C401.463776,263.947723 400.217133,264.982758 400.176636,266.062988 
	C399.972107,271.521118 400.081390,276.991028 400.082764,283.438599 
z"/>
<path fill="#B0B6BA" opacity="1.000000" stroke="none" 
	d="
M392.920929,273.014618 
	C392.935059,274.456787 392.949188,275.898987 392.589050,277.677551 
	C391.743073,278.054932 391.271332,278.095947 390.350708,278.111328 
	C331.974457,278.079651 274.047180,278.073608 215.798737,278.046844 
	C215.050766,278.007050 214.623932,277.987976 214.169876,277.646973 
	C214.177505,276.896362 214.212357,276.467712 214.542389,276.028137 
	C215.236221,276.006134 215.634857,275.995026 216.499802,276.002136 
	C238.882065,276.296539 260.797394,276.715546 282.714142,276.815369 
	C315.457184,276.964508 348.201202,276.903168 380.944794,276.880432 
	C383.413940,276.878693 385.920349,276.099854 388.342346,276.344910 
	C391.379120,276.652130 391.004547,274.788788 391.415649,273.012207 
	C392.118347,273.009125 392.519653,273.011871 392.920929,273.014618 
z"/>
<path fill="#B7BDC2" opacity="1.000000" stroke="none" 
	d="
M392.955688,272.545593 
	C392.519653,273.011871 392.118347,273.009125 391.374756,272.543152 
	C391.039856,258.079254 391.047272,244.078568 391.372314,230.052979 
	C392.113770,230.039352 392.537628,230.050644 392.961456,230.061935 
	C392.971100,244.066818 392.980774,258.071716 392.955688,272.545593 
z"/>
<path fill="#B0B6BA" opacity="1.000000" stroke="none" 
	d="
M392.896240,347.980835 
	C392.896240,347.980835 392.431763,347.993805 392.179688,347.531677 
	C391.920135,327.715576 391.912689,308.361633 392.165588,289.006042 
	C392.599548,289.006439 392.773102,289.008484 392.946625,289.010498 
	C392.984192,307.692657 393.021759,326.374817 393.039490,345.855286 
	C392.978546,347.095978 392.937378,347.538422 392.896240,347.980835 
z"/>
<path fill="#DBE1E1" opacity="1.000000" stroke="none" 
	d="
M392.979919,229.587402 
	C392.537628,230.050644 392.113770,230.039352 391.348480,229.576508 
	C391.001923,220.750381 390.996826,212.375809 390.991699,204.001221 
	C391.438263,204.000473 391.884796,203.999725 392.666290,203.999191 
	C393.000275,212.370560 392.999329,220.741714 392.979919,229.587402 
z"/>
<path fill="#E3E7EA" opacity="1.000000" stroke="none" 
	d="
M392.935547,348.397705 
	C392.937378,347.538422 392.978546,347.095978 393.063293,346.322754 
	C396.706360,346.651672 401.746643,343.885803 402.998718,350.527222 
	C400.698517,350.940002 398.357330,351.210602 396.092987,350.907318 
	C394.980164,350.758209 394.009735,349.545807 392.935547,348.397705 
z"/>
<path fill="#B7BDC2" opacity="1.000000" stroke="none" 
	d="
M392.973816,288.552979 
	C392.773102,289.008484 392.599548,289.006439 391.909241,288.696167 
	C391.194916,284.970947 390.997253,281.553955 390.799622,278.136932 
	C391.271332,278.095947 391.743073,278.054932 392.568054,277.999847 
	C392.947876,281.355682 392.974457,284.725586 392.973816,288.552979 
z"/>
<path fill="#E8ECEE" opacity="1.000000" stroke="none" 
	d="
M214.247223,276.039032 
	C214.212357,276.467712 214.177505,276.896362 214.107254,277.981171 
	C213.815674,279.471252 213.559464,280.305237 213.303253,281.139191 
	C212.835281,280.987488 211.965866,280.855804 211.957153,280.681183 
	C211.593933,273.399658 211.017334,266.110138 211.121658,258.830963 
	C211.183563,254.511688 212.427597,250.219009 212.935654,245.890381 
	C213.080109,244.659729 212.507065,243.344864 212.263031,242.068619 
	C211.694931,242.093826 211.126816,242.119019 210.558716,242.144226 
	C210.241730,245.230789 209.924759,248.317352 209.570374,251.768234 
	C204.642731,249.940033 201.418503,251.424103 198.569489,255.689178 
	C195.791428,259.848022 191.214157,256.047577 187.484634,256.697479 
	C186.891113,256.800903 186.055664,253.858261 184.899933,252.792450 
	C183.279846,251.298431 181.320206,249.292679 179.391739,249.159668 
	C169.012192,248.443741 169.000000,248.620422 169.000000,238.118866 
	C169.000000,237.619934 169.006134,237.120895 168.999100,236.622070 
	C168.857544,226.594406 171.145981,224.351608 157.814545,225.019501 
	C154.523499,225.184387 152.902817,224.092041 152.959625,220.503754 
	C153.196182,205.560272 151.353241,208.247116 164.773193,207.995224 
	C165.432922,207.982849 166.091888,207.931076 165.566681,207.957703 
	C167.748795,206.021194 169.148026,204.779449 170.773392,203.270294 
	C179.020599,203.002563 187.041656,203.002243 195.795502,203.287582 
	C201.019302,203.381561 205.510330,203.189865 210.001358,202.998169 
	C211.143326,203.338303 212.285294,203.678436 213.764984,204.496719 
	C214.150864,228.662918 214.199051,252.350983 214.247223,276.039032 
z"/>
<path fill="#B0B6BA" opacity="1.000000" stroke="none" 
	d="
M295.979675,351.118286 
	C296.646240,352.807343 297.312805,354.496338 297.976074,356.531738 
	C272.327850,356.906982 246.682846,356.963226 221.038193,356.896027 
	C219.515747,356.892029 217.995880,355.897125 215.996277,355.195404 
	C215.096359,355.534790 213.244888,356.822754 211.379547,356.843170 
	C196.393555,357.006958 181.404297,357.018982 166.417221,356.911469 
	C133.477203,356.675140 100.537933,356.333862 67.598038,356.075806 
	C66.305229,356.065643 65.009171,356.470917 63.324333,356.844818 
	C63.150776,355.245819 63.367512,353.484650 63.706276,351.426331 
	C66.084122,350.767609 68.336044,350.125366 70.596436,350.093994 
	C79.417198,349.971741 88.240654,350.042938 97.531403,350.022339 
	C103.022156,350.016205 108.044609,350.029968 113.950027,350.046692 
	C116.221825,350.037598 117.610664,350.025635 118.999512,350.013672 
	C150.318588,350.317200 181.637680,350.620697 213.794205,350.949951 
	C215.131088,350.958923 215.630508,350.942139 216.585785,350.936829 
	C243.354309,351.004944 269.666992,351.061615 295.979675,351.118286 
z"/>
<path fill="#DBE1E1" opacity="1.000000" stroke="none" 
	d="
M206.679062,293.916687 
	C207.315460,294.418701 208.087677,294.823395 208.541321,295.456390 
	C208.852203,295.890198 208.719818,296.641632 208.726028,296.699249 
	C205.331772,297.558807 202.240280,298.178284 199.261246,299.144440 
	C196.566437,300.018433 195.021240,299.584259 195.017349,296.475739 
	C195.006927,288.149506 194.589005,279.790253 195.230927,271.513794 
	C195.475723,268.357758 198.140991,265.377686 199.754333,262.344666 
	C200.535538,260.876007 201.434921,259.470215 202.709488,257.309082 
	C203.852203,257.309082 206.091400,257.309082 208.896805,257.309082 
	C208.583527,258.818634 208.332748,260.027008 207.778000,261.623230 
	C207.299088,262.012115 207.124130,262.013153 206.610352,261.893494 
	C205.176331,262.450195 203.144302,263.105133 203.127365,263.808563 
	C202.896942,273.376923 202.864426,282.952942 202.974747,292.524841 
	C203.008118,295.420532 204.793259,295.165100 206.679062,293.916687 
z"/>
<path fill="#B7BDC2" opacity="1.000000" stroke="none" 
	d="
M216.129944,350.925385 
	C215.630508,350.942139 215.131088,350.958923 214.255219,350.955078 
	C213.938126,349.241211 213.997482,347.547974 214.038971,344.962524 
	C214.014328,339.046692 214.007553,334.023041 214.000778,328.999390 
	C213.779480,326.301727 213.558197,323.604095 213.526352,320.229980 
	C213.563400,317.657196 213.410995,315.760895 213.258606,313.864594 
	C213.239761,303.255524 213.220917,292.646484 213.252670,281.588318 
	C213.559464,280.305237 213.815674,279.471252 214.134491,278.303101 
	C214.623932,277.987976 215.050766,278.007050 215.750854,278.506561 
	C216.059402,302.966461 216.094666,326.945923 216.129944,350.925385 
z"/>
<path fill="#A68053" opacity="1.000000" stroke="none" 
	d="
M206.688934,293.593506 
	C204.793259,295.165100 203.008118,295.420532 202.974747,292.524841 
	C202.864426,282.952942 202.896942,273.376923 203.127365,263.808563 
	C203.144302,263.105133 205.176331,262.450195 206.624542,262.334167 
	C207.070435,264.949829 207.163330,267.004028 207.147003,269.438263 
	C207.087997,270.864502 207.138199,271.910706 207.117126,273.423035 
	C207.013855,279.927795 206.981888,285.966492 206.949921,292.005157 
	C206.866211,292.426880 206.782501,292.848633 206.688934,293.593506 
z"/>
<path fill="#E8ECEE" opacity="1.000000" stroke="none" 
	d="
M207.351868,291.917603 
	C206.981888,285.966492 207.013855,279.927795 207.340012,273.205688 
	C207.508209,271.367615 207.382217,270.212921 207.256241,269.058258 
	C207.163330,267.004028 207.070435,264.949829 206.963364,262.454895 
	C207.124130,262.013153 207.299088,262.012115 207.736359,262.004303 
	C208.333710,264.695465 208.888931,267.387695 208.958313,270.092407 
	C209.106293,275.860809 209.085266,281.637665 208.944534,287.406464 
	C208.908340,288.889801 208.169754,290.355957 207.351868,291.917603 
z"/>
<path fill="#E8ECEE" opacity="1.000000" stroke="none" 
	d="
M212.865265,313.961853 
	C213.410995,315.760895 213.563400,317.657196 213.486572,319.842957 
	C209.694962,318.534821 210.436722,316.380585 212.865265,313.961853 
z"/>
<path fill="#E8ECEE" opacity="1.000000" stroke="none" 
	d="
M213.703430,329.291534 
	C214.007553,334.023041 214.014328,339.046692 214.014267,344.537811 
	C213.806992,339.864746 213.606537,334.724213 213.703430,329.291534 
z"/>
<path fill="#E0E4E6" opacity="1.000000" stroke="none" 
	d="
M118.933769,349.651489 
	C117.610664,350.025635 116.221825,350.037598 114.416687,350.029968 
	C115.197769,346.899506 116.950058,347.535126 118.933769,349.651489 
z"/>
<path fill="#B0B6BA" opacity="1.000000" stroke="none" 
	d="
M464.428467,356.091156 
	C466.099060,355.058197 468.192566,353.266724 470.392548,353.124664 
	C482.066864,352.370911 493.767944,352.031189 505.750549,351.237305 
	C517.493103,350.751953 528.944885,350.577240 540.689026,350.657410 
	C540.955688,351.106110 540.929932,351.299957 540.708191,351.859924 
	C540.335205,352.530396 540.416931,352.766663 540.757385,352.934906 
	C540.812500,354.037903 540.867554,355.140930 540.896362,356.658295 
	C515.546814,356.746368 490.223663,356.420074 464.428467,356.091156 
z"/>
<path fill="#E3E7EA" opacity="1.000000" stroke="none" 
	d="
M75.526688,345.975189 
	C76.471497,345.504974 77.412575,345.364349 78.353653,345.223724 
	C78.375275,345.686890 78.396889,346.150024 78.418503,346.613159 
	C77.453323,346.510376 76.488136,346.407593 75.526688,345.975189 
z"/>
<path fill="#E8ECEE" opacity="1.000000" stroke="none" 
	d="
M390.526794,204.000641 
	C390.996826,212.375809 391.001923,220.750381 391.030884,229.601440 
	C391.047272,244.078568 391.039856,258.079254 391.073303,272.549011 
	C391.004547,274.788788 391.379120,276.652130 388.342346,276.344910 
	C385.920349,276.099854 383.413940,276.878693 380.944794,276.880432 
	C348.201202,276.903168 315.457184,276.964508 282.714142,276.815369 
	C260.797394,276.715546 238.882065,276.296539 216.471313,275.535828 
	C215.966537,251.398209 215.956543,227.745163 215.946564,204.092102 
	C217.823654,203.727661 219.699783,203.052032 221.578003,203.046112 
	C244.530533,202.973724 267.483368,202.999664 290.436127,202.999969 
	C313.375305,203.000259 336.315125,202.900650 359.253387,203.045959 
	C369.524475,203.111023 379.792480,203.666916 390.526794,204.000641 
M320.997559,224.125626 
	C321.536530,220.867264 320.469116,218.904449 317.004669,218.023087 
	C315.017914,217.517654 312.650940,216.423325 311.569489,214.835266 
	C308.389130,210.164902 303.947388,210.211807 299.442352,211.127975 
	C296.687012,211.688293 294.161591,213.379272 291.354187,214.642929 
	C290.868988,214.187653 290.232117,213.664413 289.682617,213.061584 
	C287.207825,210.346741 279.647491,208.722366 276.487427,210.427567 
	C272.643219,212.501953 273.845001,216.335068 274.223389,219.357635 
	C274.433563,221.036423 276.553497,222.873581 278.263275,223.851898 
	C279.872101,224.772446 282.072662,224.658859 283.892487,225.701385 
	C282.874359,227.417374 281.856201,229.133362 280.747009,231.002762 
	C281.874146,231.517380 282.307312,231.893585 282.729675,231.881821 
	C292.794464,231.601028 302.902374,231.710266 312.893463,230.685852 
	C315.686157,230.399506 322.268555,232.298035 320.997559,224.125626 
z"/>
<path fill="#B7BDC2" opacity="1.000000" stroke="none" 
	d="
M215.647263,204.076080 
	C215.956543,227.745163 215.966537,251.398209 216.005020,275.517578 
	C215.634857,275.995026 215.236221,276.006134 214.542389,276.028137 
	C214.199051,252.350983 214.150864,228.662918 214.127991,204.512115 
	C214.551514,204.052933 214.949753,204.056503 215.647263,204.076080 
z"/>
<path fill="#E3E7EA" opacity="1.000000" stroke="none" 
	d="
M209.916382,202.611954 
	C205.510330,203.189865 201.019302,203.381561 196.264130,203.288040 
	C200.572784,202.073090 205.042908,199.315903 209.916382,202.611954 
z"/>
<path fill="#7F5E48" opacity="1.000000" stroke="none" 
	d="
M61.294487,362.081238 
	C61.263153,361.513306 61.394402,361.111603 61.525650,360.709900 
	C61.636200,360.818787 61.856907,360.952637 61.838814,361.032349 
	C61.745167,361.445007 61.590481,361.843811 61.294487,362.081238 
z"/>
<path fill="#B7BDC2" opacity="1.000000" stroke="none" 
	d="
M540.796265,352.717712 
	C540.416931,352.766663 540.335205,352.530396 540.640137,352.145203 
	C540.768188,352.064331 540.835205,352.500519 540.796265,352.717712 
z"/>
<path fill="#E6EAEC" opacity="1.000000" stroke="none" 
	d="
M216.585785,350.936829 
	C216.094666,326.945923 216.059402,302.966461 216.071991,278.527283 
	C274.047180,278.073608 331.974457,278.079651 390.350708,278.111328 
	C390.997253,281.553955 391.194916,284.970947 391.648895,288.697815 
	C391.912689,308.361633 391.920135,327.715576 391.947449,347.538666 
	C391.589294,351.922241 388.559998,350.960663 386.254883,350.964844 
	C356.475891,351.018951 326.696777,351.013153 296.448669,351.070374 
	C269.666992,351.061615 243.354309,351.004944 216.585785,350.936829 
M288.589233,295.733948 
	C288.554840,297.454590 288.520477,299.175232 287.741486,300.889954 
	C286.956696,299.990448 286.171906,299.090973 285.414612,298.223022 
	C284.944641,301.083435 278.648071,301.798065 282.050568,306.983185 
	C292.057220,306.983185 302.196136,307.156677 312.313507,306.768097 
	C313.608002,306.718384 314.790070,303.741486 316.620209,301.888855 
	C317.041779,301.839966 317.463379,301.791046 318.275574,302.355377 
	C319.132050,301.780731 319.988525,301.206085 320.793427,299.917175 
	C320.771393,298.489563 320.749329,297.061951 320.871277,294.712830 
	C319.684509,293.807861 318.597961,292.321960 317.293915,292.097076 
	C311.205750,291.047119 305.037567,290.468323 298.937958,289.475403 
	C294.921204,288.821533 290.296448,291.271790 288.589233,295.733948 
z"/>
<path fill="#A68053" opacity="1.000000" stroke="none" 
	d="
M400.081696,282.947693 
	C400.081390,276.991028 399.972107,271.521118 400.176636,266.062988 
	C400.217133,264.982758 401.463776,263.947723 402.154236,262.891846 
	C402.868896,263.987061 404.180206,265.069946 404.203125,266.179413 
	C404.373901,274.456635 404.351135,282.740173 404.207611,291.018585 
	C404.189575,292.058807 403.113708,293.080688 402.527954,294.111053 
	C401.749420,293.037354 400.476105,292.040344 400.295319,290.873993 
	C399.918457,288.442963 400.119293,285.922394 400.081696,282.947693 
z"/>
<path fill="#DBE1E1" opacity="1.000000" stroke="none" 
	d="
M207.147003,269.438263 
	C207.382217,270.212921 207.508209,271.367615 207.411316,272.739624 
	C207.138199,271.910706 207.087997,270.864502 207.147003,269.438263 
z"/>
<path fill="#E3E7EA" opacity="1.000000" stroke="none" 
	d="
M284.012878,225.000275 
	C282.072662,224.658859 279.872101,224.772446 278.263275,223.851898 
	C276.553497,222.873581 274.433563,221.036423 274.223389,219.357635 
	C273.845001,216.335068 272.643219,212.501953 276.487427,210.427567 
	C279.647491,208.722366 287.207825,210.346741 289.682617,213.061584 
	C290.232117,213.664413 290.868988,214.187653 291.354187,214.642929 
	C294.161591,213.379272 296.687012,211.688293 299.442352,211.127975 
	C303.947388,210.211807 308.389130,210.164902 311.569489,214.835266 
	C312.650940,216.423325 315.017914,217.517654 317.004669,218.023087 
	C320.469116,218.904449 321.536530,220.867264 320.829346,224.558350 
	C320.661133,224.991074 320.342804,225.033447 320.204224,224.739594 
	C319.482361,222.127884 318.193634,221.300644 315.632965,221.340515 
	C306.867279,221.477005 298.096222,221.271301 288.981445,221.166534 
	C287.094727,222.424744 285.553802,223.712509 284.012878,225.000275 
z"/>
<path fill="#DBE1E1" opacity="1.000000" stroke="none" 
	d="
M320.342804,225.033447 
	C320.342804,225.033447 320.661133,224.991074 320.820831,224.976303 
	C322.268555,232.298035 315.686157,230.399506 312.893463,230.685852 
	C302.902374,231.710266 292.794464,231.601028 282.729675,231.881821 
	C282.307312,231.893585 281.874146,231.517380 280.747009,231.002762 
	C281.856201,229.133362 282.874359,227.417374 283.952698,225.350830 
	C285.553802,223.712509 287.094727,222.424744 288.806488,221.573624 
	C287.714172,226.138351 289.523712,227.311478 293.470978,227.189880 
	C300.116760,226.985153 306.780914,227.317841 313.421722,227.044861 
	C315.752380,226.949066 318.037109,225.736237 320.342804,225.033447 
z"/>
<path fill="#A68053" opacity="1.000000" stroke="none" 
	d="
M288.486115,300.895874 
	C288.520477,299.175232 288.554840,297.454590 289.266724,295.462891 
	C300.205261,295.339355 310.466248,295.486847 320.727264,295.634338 
	C320.749329,297.061951 320.771393,298.489563 320.499268,300.344330 
	C319.431732,301.095032 318.658356,301.418610 317.884949,301.742157 
	C317.463379,301.791046 317.041779,301.839966 315.864807,301.875427 
	C311.634399,301.834778 308.155731,301.898010 304.685120,301.759369 
	C299.282593,301.543579 293.885498,301.190674 288.486115,300.895874 
z"/>
<path fill="#DBE1E1" opacity="1.000000" stroke="none" 
	d="
M288.113800,300.892883 
	C293.885498,301.190674 299.282593,301.543579 304.685120,301.759369 
	C308.155731,301.898010 311.634399,301.834778 315.566833,301.991333 
	C314.790070,303.741486 313.608002,306.718384 312.313507,306.768097 
	C302.196136,307.156677 292.057220,306.983185 282.050568,306.983185 
	C278.648071,301.798065 284.944641,301.083435 285.414612,298.223022 
	C286.171906,299.090973 286.956696,299.990448 288.113800,300.892883 
z"/>
<path fill="#E0E4E6" opacity="1.000000" stroke="none" 
	d="
M320.799255,295.173584 
	C310.466248,295.486847 300.205261,295.339355 289.476990,295.165497 
	C290.296448,291.271790 294.921204,288.821533 298.937958,289.475403 
	C305.037567,290.468323 311.205750,291.047119 317.293915,292.097076 
	C318.597961,292.321960 319.684509,293.807861 320.799255,295.173584 
z"/>
<path fill="#DBE1E1" opacity="1.000000" stroke="none" 
	d="
M318.080261,302.048767 
	C318.658356,301.418610 319.431732,301.095032 320.525085,300.701447 
	C319.988525,301.206085 319.132050,301.780731 318.080261,302.048767 
z"/>
<path fill="#A68053" opacity="1.000000" stroke="none" 
	d="
M320.204224,224.739609 
	C318.037109,225.736237 315.752380,226.949066 313.421722,227.044861 
	C306.780914,227.317841 300.116760,226.985153 293.470978,227.189880 
	C289.523712,227.311478 287.714172,226.138351 289.152283,221.603180 
	C298.096222,221.271301 306.867279,221.477005 315.632965,221.340515 
	C318.193634,221.300644 319.482361,222.127884 320.204224,224.739609 
z"/>
</svg>